<svg width="52" height="52" viewBox="0 0 52 52" fill="none" xmlns="http://www.w3.org/2000/svg">
<circle cx="26" cy="26" r="21" fill="url(#paint0_linear_118_25292)"/>
<circle cx="26" cy="26" r="21" stroke="#141778" stroke-width="10"/>
<circle cx="26" cy="26" r="21" stroke="#141778" stroke-opacity="0.5" stroke-width="10"/>
<path d="M32.75 18.25H19.25C17.9844 18.25 17 19.2695 17 20.5V30.625C17 31.8906 17.9844 32.875 19.25 32.875H22.625V35.8281C22.625 36.1094 22.8008 36.25 23.0469 36.25C23.1172 36.25 23.1875 36.25 23.293 36.1797L27.6875 32.875H32.75C33.9805 32.875 35 31.8906 35 30.625V20.5C35 19.2695 33.9805 18.25 32.75 18.25ZM33.3125 30.625C33.3125 30.9414 33.0312 31.1875 32.75 31.1875H27.125L26.668 31.5391L24.3125 33.2969V31.1875H19.25C18.9336 31.1875 18.6875 30.9414 18.6875 30.625V20.5C18.6875 20.2188 18.9336 19.9375 19.25 19.9375H32.75C33.0312 19.9375 33.3125 20.2188 33.3125 20.5V30.625ZM21.5 24.4375C20.8672 24.4375 20.375 24.9648 20.375 25.5625C20.375 26.1953 20.8672 26.6875 21.5 26.6875C22.0977 26.6875 22.625 26.1953 22.625 25.5625C22.625 24.9648 22.0977 24.4375 21.5 24.4375ZM26 24.4375C25.3672 24.4375 24.875 24.9648 24.875 25.5625C24.875 26.1953 25.3672 26.6875 26 26.6875C26.5977 26.6875 27.125 26.1953 27.125 25.5625C27.125 24.9648 26.5977 24.4375 26 24.4375ZM30.5 24.4375C29.8672 24.4375 29.375 24.9648 29.375 25.5625C29.375 26.1953 29.8672 26.6875 30.5 26.6875C31.0977 26.6875 31.625 26.1953 31.625 25.5625C31.625 24.9648 31.0977 24.4375 30.5 24.4375Z" fill="white"/>
<defs>
<linearGradient id="paint0_linear_118_25292" x1="10.0789" y1="63.8208" x2="55.5207" y2="44.241" gradientUnits="userSpaceOnUse">
<stop offset="0.916667" stop-color="#2A2AFF"/>
<stop offset="1" stop-color="#FF6F33"/>
</linearGradient>
</defs>
</svg>
