<svg width="34" height="28" viewBox="0 0 34 28" fill="none" xmlns="http://www.w3.org/2000/svg">
<path d="M33.2929 0.14367C33.1906 0.0493548 33.0585 0 32.9251 0C32.8446 0 32.7644 0.0178489 32.6884 0.0551692L0.534402 15.8276C0.205753 15.9891 -0.00221333 16.3247 1.77747e-05 16.6919C0.00224888 17.0585 0.213731 17.3918 0.544746 17.5498L9.01903 21.5877L25.9633 7.66081L11.1186 22.588L21.6755 27.6181C21.8052 27.6803 21.9467 27.7112 22.0868 27.7112C22.2064 27.7112 22.3247 27.6894 22.4375 27.6451C22.6833 27.5479 22.8787 27.3532 22.9763 27.1072L33.4284 0.739578C33.5112 0.532085 33.4572 0.294844 33.2929 0.14367Z" fill="white"/>
</svg>
