<svg xmlns="http://www.w3.org/2000/svg" viewBox="0 0 67.87 68.25"><defs><style>.cls-1{fill:#00b5a8;}.cls-2{fill:#fff;}</style></defs><g id="OBJECTS"><circle class="cls-1" cx="33.94" cy="34.12" r="32" transform="translate(-8.61 56.62) rotate(-73.02)"/><path class="cls-2" d="M49.56,40.58a6.38,6.38,0,0,0-1.41-.88c-.49-.24-4.07-2-4.74-2.23s-1.23-.44-1.82.43c-.44.65-1.74,2.17-2.17,2.65s-.57.45-1.22.12a23.62,23.62,0,0,1-5.5-3.36,20.36,20.36,0,0,1-3.8-4.69c-.3-.51-.1-.75.27-1.12s1.24-1.45,1.32-1.57.45-.83.45-.83a1.46,1.46,0,0,0-.06-1.4c-.11-.23-1.95-4.65-2.12-5.07-.53-1.25-1.08-1.31-1.62-1.28-.26,0-2.69,0-3.46.88l-.14.14a7.71,7.71,0,0,0-2.34,5.71,8.67,8.67,0,0,0,.37,2.4,15.57,15.57,0,0,0,2.5,4.82s1.8,2.5,2.69,3.53A24.52,24.52,0,0,0,36,45.71c4.09,1.6,5.84,2,6.83,2a14.35,14.35,0,0,0,1.55-.24c1.25-.11,4.22-1.66,4.85-3.4A5.66,5.66,0,0,0,49.56,40.58Z"/></g></svg>