<svg xmlns="http://www.w3.org/2000/svg" viewBox="0 0 67.87 68.25"><defs><style>.cls-1{fill:#589ddd;}.cls-2{fill:#fff;}</style></defs><g id="OBJECTS"><circle class="cls-1" cx="33.94" cy="34.12" r="32" transform="translate(-4.1 63.61) rotate(-82.93)"/><path class="cls-2" d="M48,24.19H19.7a2.43,2.43,0,0,0-2.43,2.44V43.52A2.43,2.43,0,0,0,19.7,46H48a2.44,2.44,0,0,0,2.44-2.44V26.63A2.44,2.44,0,0,0,48,24.19ZM48.45,27,34.15,35a.55.55,0,0,1-.28.07H33.8a.52.52,0,0,1-.27-.07L19.23,27a.57.57,0,1,1,.55-1l14.06,7.82L47.9,26a.57.57,0,0,1,.55,1Z"/></g></svg>