<svg xmlns="http://www.w3.org/2000/svg" viewBox="0 0 67.87 68.25"><defs><style>.cls-1{fill:#00aff0;}.cls-2{fill:#fff;}</style></defs><g id="OBJECTS"><circle class="cls-1" cx="33.94" cy="34.12" r="32"/><path class="cls-2" d="M53.13,37.16a19,19,0,0,0,.24-3A19.43,19.43,0,0,0,33.94,14.69a19,19,0,0,0-3,.24A11.74,11.74,0,0,0,14.74,31.09a20.2,20.2,0,0,0-.24,3A19.44,19.44,0,0,0,33.94,53.56a19,19,0,0,0,3-.24A11.74,11.74,0,0,0,53.13,37.16ZM43.17,43a8.16,8.16,0,0,1-3.61,2.77,14.34,14.34,0,0,1-5.61,1,13.33,13.33,0,0,1-6.42-1.37,8.25,8.25,0,0,1-2.93-2.63,5.69,5.69,0,0,1-1.13-3.21,2.15,2.15,0,0,1,.7-1.6,2.46,2.46,0,0,1,1.76-.66,2.2,2.2,0,0,1,1.47.52,3.91,3.91,0,0,1,1,1.5,9.45,9.45,0,0,0,1.07,1.92,4.28,4.28,0,0,0,1.6,1.25,6.29,6.29,0,0,0,2.72.5,6.51,6.51,0,0,0,3.77-1A2.9,2.9,0,0,0,39,39.49a2.49,2.49,0,0,0-.76-1.89,5.13,5.13,0,0,0-2-1.13c-.83-.26-1.95-.54-3.35-.84a26,26,0,0,1-4.72-1.43,7.65,7.65,0,0,1-3-2.26A5.62,5.62,0,0,1,24,28.38a5.86,5.86,0,0,1,1.19-3.61,7.5,7.5,0,0,1,3.45-2.42,15,15,0,0,1,5.27-.84,14,14,0,0,1,4.18.56A9.21,9.21,0,0,1,41,23.55a6.44,6.44,0,0,1,1.72,2,4.27,4.27,0,0,1,.54,2,2.42,2.42,0,0,1-2.42,2.37,2.1,2.1,0,0,1-1.44-.44,5.57,5.57,0,0,1-1-1.41,6.52,6.52,0,0,0-1.69-2.11,5.24,5.24,0,0,0-3.15-.75,5.83,5.83,0,0,0-3.26.82A2.34,2.34,0,0,0,29,27.93a1.91,1.91,0,0,0,.41,1.2A3.54,3.54,0,0,0,30.6,30a7.3,7.3,0,0,0,1.5.59c.51.15,1.35.35,2.52.63,1.47.32,2.81.67,4,1.06a12.8,12.8,0,0,1,3.06,1.41,6,6,0,0,1,2,2.13A6.41,6.41,0,0,1,44.4,39a6.89,6.89,0,0,1-1.23,4Zm0,0"/></g></svg>