<svg xmlns="http://www.w3.org/2000/svg" viewBox="0 0 67.87 68.25"><defs><style>.cls-1{fill:#00c169;}.cls-2{fill:#fff;fill-rule:evenodd;}</style></defs><g id="OBJECTS"><circle class="cls-1" cx="33.94" cy="34.12" r="32"/><path class="cls-2" d="M44.85,38.89c-.53-.29-3.17-1.71-3.67-1.92s-.85-.3-1.24.23-1.48,1.73-1.81,2.08-.66.39-1.19.09a14.63,14.63,0,0,1-4.3-2.88,16,16,0,0,1-2.9-3.9c-.31-.56,0-.85.28-1.11s.57-.62.85-.93a3.53,3.53,0,0,0,.59-.89,1,1,0,0,0,0-1c-.12-.28-1.11-3-1.53-4.12s-.88-.95-1.2-1-.68-.07-1-.09a2,2,0,0,0-1.49.63,6.15,6.15,0,0,0-2.08,4.5c-.11,2.69,1.76,5.36,2,5.74s3.55,6.21,9,8.61,5.52,1.67,6.52,1.62,3.29-1.21,3.79-2.47a4.51,4.51,0,0,0,.42-2.59c-.13-.23-.49-.38-1-.68Zm-10.05,13A17.79,17.79,0,0,1,25,48.92l-6.85,2.2,2.22-6.63A17.85,17.85,0,1,1,34.8,51.87Zm0-39.29A21.44,21.44,0,0,0,16.44,45.09L12.57,56.6l11.87-3.8A21.44,21.44,0,1,0,34.8,12.58Z"/></g></svg>