<svg width="85" height="85" viewBox="0 0 85 85" fill="none" xmlns="http://www.w3.org/2000/svg">
<rect width="85" height="85" rx="25" fill="#845F73" fill-opacity="0.05"/>
<path d="M42.0705 23.9453C48.4752 23.9453 54.8927 23.9581 61.2975 23.9453C63.3388 23.9453 64.8953 24.7619 65.7502 26.6501C66.0308 27.2498 66.1584 27.977 66.1584 28.6404C66.1839 38.222 66.1839 47.8036 66.1712 57.398C66.1712 60.141 64.1936 62.0931 61.4506 62.0931C48.5135 62.0931 35.5892 62.0931 22.6521 62.0931C19.8963 62.0931 17.957 60.141 17.957 57.3852C17.957 47.8291 17.957 38.2858 17.957 28.7297C17.957 25.8846 19.8708 23.9708 22.7414 23.9708C27.8703 23.9581 33.012 23.9708 38.1409 23.9708C39.455 23.9453 40.7564 23.9453 42.0705 23.9453ZM21.5433 36.5251C21.3552 36.5251 21.1849 36.6687 21.1849 36.8569C21.1849 43.6826 21.1849 50.5084 21.1849 57.3342C21.1849 58.3676 21.6825 58.8269 22.7925 58.8269C35.6275 58.8269 48.4625 58.8269 61.2975 58.8269C62.4585 58.8269 62.9305 58.3676 62.9305 57.2193C62.9305 50.4956 62.9305 43.7592 62.9305 37.0355C62.9305 36.7606 62.7078 36.5377 62.4329 36.5374C48.7791 36.5252 35.1853 36.5251 21.5433 36.5251ZM58.1077 33.2462C60.7713 33.2462 62.9607 31.0867 62.9178 28.4235C62.9178 27.9515 62.6754 27.5304 62.2288 27.3646C61.8971 27.237 61.5144 27.186 61.1571 27.186C48.4114 27.1732 35.6785 27.1732 22.9328 27.1732C22.818 27.1732 22.7032 27.1732 22.6011 27.1732C21.6825 27.2115 21.1977 27.7091 21.1849 28.6277C21.1722 30.0566 21.1849 31.4983 21.1849 32.9273C21.1849 33.1103 21.3617 33.2462 21.5447 33.2462C33.7481 33.2462 45.9128 33.2462 58.1077 33.2462Z" fill="#845F73"/>
<path d="M39.1983 57.1594C37.5964 56.8969 38.0142 54.5807 38.3688 52.9966C39.3257 48.697 40.2826 44.3846 41.2394 40.0851C41.4563 39.1027 42.1708 38.5668 43.1022 38.6944C44.0336 38.822 44.646 39.7023 44.4291 40.6592C43.7018 43.9509 42.9746 47.2425 42.2346 50.5342C41.8391 52.3204 41.4436 54.1066 41.0353 55.8928C40.8439 56.7348 40.0784 57.2707 39.2619 57.1686C39.2405 57.1659 39.2193 57.1629 39.1983 57.1594Z" fill="#845F73"/>
<path d="M31.9646 47.5877C31.7873 47.7904 31.7873 48.0993 31.9777 48.2897C33.2752 49.5872 34.5538 50.8648 35.8432 52.1425C36.2642 52.5635 36.5066 53.0483 36.3918 53.648C36.277 54.2731 35.9197 54.7197 35.2946 54.9238C34.6566 55.1279 34.0953 54.9748 33.6232 54.5155C32.4112 53.3162 31.2119 52.1042 29.9998 50.8921C29.4129 50.3052 28.826 49.7311 28.2392 49.1315C27.5119 48.3787 27.5119 47.4601 28.2519 46.7201C30.0126 44.9467 31.786 43.1733 33.5594 41.4126C34.2867 40.6854 35.2308 40.6599 35.907 41.3105C36.5959 41.974 36.5832 42.9564 35.8559 43.6964C34.5673 44.9977 33.266 46.2863 31.9646 47.5877Z" fill="#845F73"/>
<path d="M51.1099 48.32C51.3372 48.1123 51.345 47.7409 51.1161 47.535C49.8275 46.2464 48.5389 44.9705 47.2631 43.6819C46.5614 42.9802 46.5486 41.985 47.1865 41.3344C47.85 40.6709 48.8196 40.6837 49.5341 41.3854C51.3203 43.1588 53.1065 44.945 54.8799 46.7312C55.6199 47.4712 55.6071 48.4025 54.8671 49.1553C53.1065 50.9287 51.333 52.7021 49.5596 54.4628C48.8324 55.19 47.8372 55.2028 47.1738 54.5393C46.5231 53.8631 46.5614 52.8935 47.2886 52.1535C48.5645 50.8777 49.8403 49.6018 51.1034 48.326C51.1056 48.324 51.1077 48.322 51.1099 48.32Z" fill="#845F73"/>
<path d="M29.3373 31.6523C28.5335 31.6523 27.8956 31.0144 27.8828 30.1979C27.8828 29.3813 28.508 28.7434 29.3245 28.7307C30.1538 28.7179 30.8045 29.3686 30.7917 30.2106C30.7917 31.0272 30.1538 31.6523 29.3373 31.6523Z" fill="#845F73"/>
<path d="M34.1976 31.6522C33.3938 31.6394 32.7687 30.976 32.7814 30.1594C32.7942 29.3556 33.4449 28.7305 34.2614 28.7305C35.0907 28.7432 35.7159 29.4067 35.6904 30.2487C35.6649 31.0525 35.0142 31.6649 34.1976 31.6522Z" fill="#845F73"/>
<path d="M25.918 30.1839C25.918 30.9877 25.2928 31.6384 24.4763 31.6511C23.647 31.6639 22.9835 31.0004 22.9963 30.1839C23.009 29.3801 23.6597 28.7422 24.4635 28.7422C25.2673 28.7422 25.9052 29.3801 25.918 30.1839Z" fill="#845F73"/>
</svg>
