<svg width="85" height="85" viewBox="0 0 85 85" fill="none" xmlns="http://www.w3.org/2000/svg">
<rect width="85" height="85" rx="25" fill="#5F5FFF" fill-opacity="0.05"/>
<path d="M64.5516 26.1654C64.5516 27.4911 64.242 29.1284 62.9163 29.1221C62.8962 29.122 62.876 29.1217 62.8556 29.1213C61.3822 29.087 59.9259 29.1041 58.4526 29.1041C57.4932 29.1041 56.9963 28.6073 56.9963 27.665C56.9963 27.0784 56.5207 26.6028 55.9341 26.6028C55.4618 26.6028 54.9924 26.6028 54.5243 26.6028C53.6624 26.6028 53.3045 27.6728 53.9468 28.2475C57.1334 31.1429 58.9494 34.7578 59.3606 39.0408C59.3948 39.3492 59.4976 39.5034 59.7718 39.6233C61.2109 40.2572 62.1189 41.8677 61.9304 43.3753C61.7077 45.1057 60.5256 46.442 58.9323 46.7332C57.2704 47.0416 55.6771 46.2878 54.8891 44.8487C53.8269 42.9127 54.5807 40.5828 56.5852 39.6233C56.825 39.5034 56.8764 39.3835 56.8421 39.1436C56.6023 36.7451 55.7799 34.5522 54.4094 32.582C53.2726 30.9609 51.9134 29.6534 50.3285 28.6629C48.2262 27.3492 45.5468 29.087 43.0678 29.087C40.5926 29.087 37.9423 27.334 35.8451 28.6488C35.7508 28.7079 35.6571 28.7683 35.5639 28.83C32.5658 30.8345 30.5956 33.6099 29.6533 37.1049C29.482 37.7731 29.4134 38.4755 29.2935 39.1608C29.2421 39.4006 29.3278 39.5206 29.5676 39.6405C30.9382 40.3258 31.692 41.4565 31.7263 42.9813C31.7434 44.4889 31.0581 45.6368 29.7218 46.3734C27.8373 47.4014 25.5244 46.6133 24.5479 44.626C23.657 42.8442 24.4965 40.4971 26.3468 39.6576C26.6551 39.5206 26.7579 39.3492 26.7922 39.0066C27.2205 34.7407 29.0194 31.1429 32.1889 28.2475C32.8306 27.6578 32.479 26.6028 31.6075 26.6028C31.1412 26.6028 30.6729 26.6028 30.2015 26.6028C29.6149 26.6028 29.1393 27.0784 29.1393 27.665C29.1393 28.6073 28.6425 29.1041 27.7173 29.1041C26.1412 29.1041 24.5479 29.1041 22.9717 29.1041C22.0808 29.1041 21.584 28.5902 21.5669 27.6993C21.5669 26.2088 21.6011 24.7354 21.5497 23.2449C21.52 21.8761 23.2014 21.5488 24.5706 21.5488C25.6102 21.5488 26.6498 21.5488 27.6895 21.5488C28.0244 21.5488 28.3752 21.593 28.631 21.8091C29.1594 22.2555 29.1362 22.9198 29.1225 23.5876C29.1171 23.8552 29.3342 24.0673 29.6019 24.0673C32.7542 24.0673 35.8894 24.0673 39.0417 24.0673C39.3501 24.0673 39.5386 24.0159 39.6756 23.6904C39.7784 23.4162 39.9669 23.1593 40.1725 22.9194C40.6908 22.2715 41.3665 21.9019 42.1181 21.6682C42.4048 21.5791 42.7055 21.5488 43.0058 21.5488C43.0132 21.5488 43.0206 21.5488 43.0281 21.5488C43.3839 21.5488 43.7378 21.6008 44.0786 21.703C45.158 22.0114 45.9632 22.6796 46.4429 23.6904C46.5799 23.9987 46.7513 24.0673 47.0768 24.0673C50.2291 24.0501 53.3643 24.0673 56.5166 24.0673C56.7843 24.0673 57.0014 23.8552 56.996 23.5876C56.9823 22.9198 56.9591 22.2555 57.4875 21.8091C57.7433 21.593 58.0941 21.5488 58.4291 21.5488C59.9435 21.5488 61.4579 21.5488 62.9723 21.5488C63.3912 21.5488 63.7929 21.7152 64.0891 22.0114C64.3853 22.3076 64.5516 22.7093 64.5516 23.1281C64.5516 24.1406 64.5516 25.153 64.5516 26.1654ZM25.3467 24.0844C24.6654 24.0844 24.1196 24.6495 24.1196 25.3308C24.1196 26.012 24.6847 26.5514 25.3659 26.5514C26.0472 26.5514 26.5866 25.9928 26.5866 25.3115C26.5866 24.6302 26.0279 24.0844 25.3467 24.0844ZM60.759 26.5686C61.4403 26.5686 61.9989 25.997 61.9989 25.3158C61.9989 24.6345 61.4338 24.1015 60.7526 24.1015C60.0713 24.1015 59.5319 24.6602 59.5319 25.3415C59.5319 26.0227 60.0777 26.5686 60.759 26.5686ZM44.3185 25.3179C44.3185 24.6326 43.7531 24.0673 43.0678 24.0673C42.3825 24.0673 41.8172 24.6326 41.8172 25.3179C41.8172 26.0032 42.3825 26.5686 43.0678 26.5686C43.736 26.5857 44.3185 26.0032 44.3185 25.3179ZM29.2078 43.0155C29.2078 42.3302 28.6253 41.7649 27.9401 41.782C27.2548 41.782 26.6894 42.3645 26.7065 43.0498C26.7065 43.7351 27.289 44.3004 27.9743 44.2833C28.6425 44.2833 29.2078 43.7008 29.2078 43.0155ZM59.4291 43.0327C59.4291 42.3474 58.8466 41.782 58.1613 41.782C57.476 41.782 56.9107 42.3645 56.9107 43.0498C56.9107 43.7351 57.4932 44.3004 58.1785 44.3004C58.8637 44.2833 59.4291 43.7008 59.4291 43.0327Z" fill="#5F5FFF"/>
<path d="M43.0333 64.5343C40.6005 64.5343 38.1678 64.5343 35.735 64.5343C34.707 64.5343 34.2102 64.0204 34.2616 62.9924C34.3473 61.245 35.0326 59.7716 36.3175 58.5895C36.5745 58.3496 36.643 58.1269 36.5745 57.7842C36.0262 54.4606 34.5871 51.5824 32.2743 49.1325C31.6061 48.4129 31.5718 47.9332 32.1201 47.1109C35.3752 42.2282 38.6303 37.3455 41.8854 32.4628C42.5707 31.4177 43.5644 31.4349 44.2668 32.4799C47.5048 37.3455 50.7428 42.1939 53.9979 47.0595C54.5976 47.9503 54.5633 48.4129 53.8438 49.1839C51.5309 51.6166 50.1261 54.4949 49.5778 57.8014C49.5264 58.144 49.595 58.3667 49.8519 58.5895C51.154 59.7887 51.8222 61.3135 51.8907 63.0781C51.9249 63.9861 51.411 64.5172 50.4858 64.5172C47.9845 64.5343 45.5004 64.5343 43.0333 64.5343ZM44.4784 37.3715C44.4298 37.2986 44.3182 37.3264 44.3182 37.414C44.3182 39.6755 44.3182 41.954 44.3182 44.2155C44.3182 44.4896 44.4382 44.5582 44.6437 44.6609C46.4769 45.5004 47.3164 47.6762 46.5283 49.5436C45.8944 51.0341 44.2668 52.0107 42.7249 51.8222C40.9603 51.5995 39.5897 50.366 39.3499 48.7555C39.0758 46.9567 39.8981 45.3634 41.4743 44.6438C41.7141 44.541 41.7998 44.404 41.7827 44.147C41.7655 41.9369 41.7827 39.7269 41.7827 37.5168C41.7827 37.4475 41.7827 37.3782 41.7827 37.2999C41.7827 37.2683 41.7583 37.2392 41.728 37.2303C41.7097 37.225 41.6906 37.2351 41.68 37.251C40.2 39.4657 38.7266 41.6805 37.2515 43.8994C35.6703 46.2781 36.0011 49.3764 37.2899 51.9254C37.4758 52.2932 37.6488 52.6664 37.8089 53.0447C38.7271 55.2147 40.6942 56.8762 43.0504 56.8762C45.3965 56.8762 47.3559 55.2051 48.2681 53.0436C48.6885 52.0473 49.1984 51.087 49.7988 50.1654C50.7098 48.767 50.8693 46.9492 49.9429 45.5609C48.1407 42.8597 46.3241 40.1399 44.4784 37.3715ZM40.3264 59.4289C38.1023 59.5039 39.2493 61.9816 41.4747 61.9816C42.544 61.9816 43.613 61.9816 44.6823 61.9816C46.8863 61.9816 48.0286 59.5049 45.8259 59.4289C43.9927 59.3775 42.1596 59.3775 40.3264 59.4289ZM44.3182 48.0703C44.3182 47.385 43.7357 46.8196 43.0504 46.8196C42.3652 46.8196 41.7998 47.4021 41.7998 48.0874C41.7998 48.7727 42.3823 49.338 43.0676 49.338C43.7529 49.3209 44.3182 48.7555 44.3182 48.0703Z" fill="#5F5FFF"/>
</svg>
