<svg width="88" height="89" viewBox="0 0 88 89" fill="none" xmlns="http://www.w3.org/2000/svg">
<rect y="0.078125" width="88" height="88" rx="25" fill="#F7931A" fill-opacity="0.05"/>
<path d="M33.1758 68.1694C31.4416 68.1694 29.6181 68.1516 28.0736 67.363C25.3745 65.9969 23.9262 63.7587 23.7616 60.7304C23.7122 59.7429 23.7451 58.7554 23.7451 57.7515C23.7451 47.4817 23.7451 37.1955 23.7451 26.9257C23.7451 23.4695 25.7201 20.6059 28.9129 19.5196C29.7358 19.2398 30.6246 19.0917 31.4968 19.0917C37.6357 19.0588 43.7745 19.0588 49.8968 19.0753C54.3076 19.0917 57.6485 22.4491 57.665 26.8599C57.665 27.7651 57.665 28.6867 57.665 29.5919C57.6485 30.7933 56.8421 31.6492 55.723 31.6327C54.6203 31.6162 53.8468 30.7769 53.8303 29.5919C53.8303 28.7032 53.8303 27.798 53.8303 26.9093C53.8138 24.5722 52.1845 22.91 49.8475 22.91C43.7416 22.8935 37.6357 22.8935 31.5297 22.91C29.2092 22.91 27.5634 24.5558 27.5634 26.8599C27.5469 38.0348 27.5469 49.1934 27.5634 60.3683C27.5634 62.656 29.2092 64.3018 31.4968 64.3182C37.6357 64.3347 43.7745 64.3347 49.8968 64.3182C52.1516 64.3182 53.7809 62.6724 53.8138 60.4012C53.8303 59.1998 53.7974 57.9984 53.8303 56.8134C53.8468 55.8918 54.4722 55.1841 55.3773 54.9866C56.2002 54.8055 57.0725 55.2334 57.4511 56.007C57.5498 56.2045 57.6321 56.4349 57.6321 56.6488C57.6321 58.2782 57.7144 59.924 57.5498 61.5368C57.1713 64.9272 54.4886 67.5769 51.1147 68.0707C50.9323 68.1071 50.7558 68.1694 50.5697 68.1694C44.7851 68.1694 38.9767 68.1694 33.1758 68.1694Z" fill="#F7931A"/>
<path d="M33.1426 43.7464C33.1755 42.4791 33.5705 41.3764 34.5086 40.5535C36.1544 39.1052 37.8496 37.6899 39.5612 36.2909C40.4005 35.5997 41.5526 35.7807 42.2109 36.5872C42.8857 37.4101 42.787 38.5457 41.9147 39.2863C40.5158 40.4877 39.0839 41.6727 37.6685 42.8577C37.5698 42.9399 37.471 43.0222 37.3723 43.1045C36.8456 43.5653 36.8456 43.911 37.3723 44.3718C38.87 45.6391 40.3841 46.8899 41.8818 48.1571C42.7047 48.8484 42.8692 49.8523 42.359 50.6917C41.7172 51.7285 40.417 51.9095 39.4131 51.0866C38.1952 50.0827 36.9937 49.0623 35.7759 48.0419C35.3479 47.6798 34.9036 47.3342 34.5086 46.9392C33.5869 46.067 33.159 44.9643 33.1426 43.7464Z" fill="#F7931A"/>
<path d="M65.2689 43.7464C65.236 44.9808 64.841 46.0835 63.9358 46.8899C62.3064 48.3547 60.6442 49.77 58.9655 51.169C58.1426 51.8602 56.9576 51.6792 56.3157 50.8727C55.6574 50.0498 55.7397 48.9307 56.5626 48.2065C58.0109 46.9393 59.4757 45.7049 60.924 44.4541C61.6152 43.8616 61.6152 43.5654 60.924 42.9729C59.5086 41.755 58.0767 40.5536 56.6613 39.3357C55.822 38.6115 55.641 37.6076 56.1841 36.7682C56.8424 35.7478 58.1426 35.5668 59.13 36.4062C60.315 37.3936 61.4835 38.414 62.6685 39.418C63.08 39.7636 63.5079 40.1092 63.9029 40.4877C64.7916 41.3929 65.236 42.4956 65.2689 43.7464Z" fill="#F7931A"/>
<path d="M47.1648 53.2251C45.9634 53.2087 45.0747 52.1389 45.3874 50.9375C45.8317 49.16 46.3584 47.399 46.8686 45.638C47.8067 42.3464 48.7448 39.0384 49.6664 35.7468C49.8969 34.9403 50.3083 34.3314 51.1806 34.1174C52.5631 33.7883 53.8632 34.9897 53.5176 36.3557C52.9745 38.4623 52.3656 40.536 51.7731 42.6097C50.9173 45.638 50.0614 48.6498 49.1892 51.6616C48.8929 52.6491 48.1029 53.2251 47.1648 53.2251Z" fill="#F7931A"/>
<path d="M40.7295 29.7392C40.0876 29.7392 39.4458 29.7557 38.8204 29.7392C37.7341 29.7228 36.9277 28.9163 36.8948 27.8795C36.8783 26.8426 37.6519 25.9703 38.7381 25.9374C40.0547 25.888 41.3878 25.888 42.7209 25.9374C43.8071 25.9703 44.5807 26.8426 44.5642 27.8795C44.5477 28.9328 43.7248 29.7392 42.6057 29.7557C41.9638 29.7392 41.3384 29.7392 40.7295 29.7392Z" fill="#F7931A"/>
<path d="M40.6976 61.3718C39.6443 61.3718 38.7885 60.4995 38.8049 59.4298C38.8214 58.3929 39.6772 57.5371 40.714 57.5371C41.7674 57.5371 42.6396 58.4094 42.6396 59.4627C42.6232 60.5325 41.7674 61.3718 40.6976 61.3718Z" fill="#F7931A"/>
</svg>
