<svg width="85" height="85" viewBox="0 0 85 85" fill="none" xmlns="http://www.w3.org/2000/svg">
<rect width="85" height="85" rx="25" fill="#00C3B7" fill-opacity="0.05"/>
<path d="M42.0705 23.9434C48.4752 23.9434 54.8927 23.9561 61.2975 23.9434C63.3388 23.9434 64.8953 24.7599 65.7502 26.6481C66.0308 27.2478 66.1584 27.975 66.1584 28.6385C66.1839 38.2201 66.1839 47.8017 66.1712 57.396C66.1712 60.1391 64.1936 62.0911 61.4506 62.0911C48.5135 62.0911 35.5892 62.0911 22.6521 62.0911C19.8963 62.0911 17.957 60.1391 17.957 57.3832C17.957 47.8272 17.957 38.2839 17.957 28.7278C17.957 25.8826 19.8708 23.9689 22.7414 23.9689C27.8703 23.9561 33.012 23.9689 38.1409 23.9689C39.455 23.9434 40.7564 23.9434 42.0705 23.9434ZM21.5433 36.5232C21.3552 36.5232 21.1849 36.6668 21.1849 36.8549C21.1849 43.6807 21.1849 50.5064 21.1849 57.3322C21.1849 58.3656 21.6825 58.8249 22.7925 58.8249C35.6275 58.8249 48.4625 58.8249 61.2975 58.8249C62.4585 58.8249 62.9305 58.3656 62.9305 57.2174C62.9305 50.4937 62.9305 43.7572 62.9305 37.0335C62.9305 36.7586 62.7078 36.5357 62.4329 36.5355C48.7791 36.5233 35.1853 36.5232 21.5433 36.5232ZM58.1077 33.2443C60.7713 33.2443 62.9607 31.0848 62.9178 28.4216C62.9178 27.9495 62.6754 27.5285 62.2288 27.3626C61.8971 27.235 61.5144 27.184 61.1571 27.184C48.4114 27.1712 35.6785 27.1712 22.9328 27.1712C22.818 27.1712 22.7032 27.1712 22.6011 27.1712C21.6825 27.2095 21.1977 27.7071 21.1849 28.6257C21.1722 30.0547 21.1849 31.4964 21.1849 32.9253C21.1849 33.1083 21.3617 33.2443 21.5447 33.2443C33.7481 33.2443 45.9128 33.2443 58.1077 33.2443Z" fill="#00C3B7"/>
<path d="M39.1983 57.1575C37.5964 56.8949 38.0142 54.5787 38.3688 52.9946C39.3257 48.695 40.2826 44.3827 41.2394 40.0831C41.4563 39.1007 42.1708 38.5648 43.1022 38.6924C44.0336 38.82 44.646 39.7003 44.4291 40.6572C43.7018 43.9489 42.9746 47.2406 42.2346 50.5323C41.8391 52.3184 41.4436 54.1046 41.0353 55.8908C40.8439 56.7329 40.0784 57.2687 39.2619 57.1667C39.2405 57.164 39.2193 57.1609 39.1983 57.1575Z" fill="#00C3B7"/>
<path d="M31.9646 47.5857C31.7873 47.7884 31.7873 48.0974 31.9777 48.2878C33.2752 49.5852 34.5538 50.8629 35.8432 52.1405C36.2642 52.5615 36.5066 53.0464 36.3918 53.646C36.277 54.2712 35.9197 54.7177 35.2946 54.9218C34.6566 55.126 34.0953 54.9729 33.6232 54.5136C32.4112 53.3143 31.2119 52.1022 29.9998 50.8902C29.4129 50.3033 28.826 49.7292 28.2392 49.1295C27.5119 48.3768 27.5119 47.4582 28.2519 46.7182C30.0126 44.9447 31.786 43.1713 33.5594 41.4107C34.2867 40.6834 35.2308 40.6579 35.907 41.3086C36.5959 41.972 36.5832 42.9544 35.8559 43.6944C34.5673 44.9958 33.266 46.2844 31.9646 47.5857Z" fill="#00C3B7"/>
<path d="M51.1099 48.3181C51.3372 48.1103 51.345 47.739 51.1161 47.533C49.8275 46.2444 48.5389 44.9686 47.2631 43.68C46.5614 42.9782 46.5486 41.9831 47.1865 41.3324C47.85 40.669 48.8196 40.6817 49.5341 41.3834C51.3203 43.1569 53.1065 44.943 54.8799 46.7292C55.6199 47.4692 55.6071 48.4006 54.8671 49.1533C53.1065 50.9268 51.333 52.7002 49.5596 54.4608C48.8324 55.1881 47.8372 55.2008 47.1738 54.5374C46.5231 53.8612 46.5614 52.8916 47.2886 52.1516C48.5645 50.8757 49.8403 49.5999 51.1034 48.324C51.1056 48.322 51.1077 48.3201 51.1099 48.3181Z" fill="#00C3B7"/>
<path d="M29.3373 31.6504C28.5335 31.6504 27.8956 31.0125 27.8828 30.1959C27.8828 29.3794 28.508 28.7415 29.3245 28.7287C30.1538 28.7159 30.8045 29.3666 30.7917 30.2087C30.7917 31.0252 30.1538 31.6504 29.3373 31.6504Z" fill="#00C3B7"/>
<path d="M34.1976 31.6502C33.3938 31.6374 32.7687 30.974 32.7814 30.1575C32.7942 29.3537 33.4449 28.7285 34.2614 28.7285C35.0907 28.7413 35.7159 29.4047 35.6904 30.2468C35.6649 31.0506 35.0142 31.663 34.1976 31.6502Z" fill="#00C3B7"/>
<path d="M25.918 30.1819C25.918 30.9857 25.2928 31.6364 24.4763 31.6492C23.647 31.6619 22.9835 30.9985 22.9963 30.1819C23.009 29.3782 23.6597 28.7402 24.4635 28.7402C25.2673 28.7402 25.9052 29.3782 25.918 30.1819Z" fill="#00C3B7"/>
</svg>
